<svg xmlns="http://www.w3.org/2000/svg" width="1000" height="1000">
    <path d="M83.333 166.667C37.789 166.667 0 204.456 0 250v500c0 45.544 37.789 83.333 83.333 83.333h833.333c45.545 0 83.334-37.789 83.334-83.333V250c0-45.544-37.789-83.333-83.334-83.333H83.333zm0 83.333h833.333v500H83.333V250zm125 83.333v333.333h83.333V486.491l26.042 55.176h72.917l26.042-55.176v180.176H500V333.333h-83.333l-62.5 127.441-62.5-127.441h-83.334zm458.334 0V500h-83.334l125 166.667 125-166.667H750V333.333h-83.333z" />
</svg>